<?xml version="1.0" encoding="utf-8"?>
<!-- Generator: Adobe Illustrator 25.4.1, SVG Export Plug-In . SVG Version: 6.00 Build 0)  -->
<svg version="1.1" id="レイヤー_1" xmlns="http://www.w3.org/2000/svg" xmlns:xlink="http://www.w3.org/1999/xlink" x="0px"
	 y="0px" viewBox="0 0 300 237.5" style="enable-background:new 0 0 300 237.5;" xml:space="preserve">
<style type="text/css">
	.st0{fill:#444444;stroke:#444444;stroke-width:2.8346;stroke-linecap:round;stroke-linejoin:round;stroke-miterlimit:10;}
</style>
<g>
	<path class="st0" d="M295.2,119C295.2,119,295.2,118.9,295.2,119c0-0.3,0-0.4,0-0.6c0-0.1,0-0.1,0-0.2s0-0.2-0.1-0.3
		c0-0.1,0-0.1-0.1-0.2c0-0.1-0.1-0.2-0.1-0.3c0,0,0-0.1-0.1-0.1c-0.1-0.1-0.2-0.3-0.3-0.4l0,0c0,0,0,0-0.1-0.1
		c-0.1-0.1-0.1-0.1-0.2-0.2L166.6,4.4c-1.2-1-2.9-0.9-3.9,0.3s-0.9,2.9,0.3,3.9l122.1,107.2H7.1c-1.6,0-2.8,1.3-2.8,2.8
		s1.3,2.8,2.8,2.8h278L162.9,228.8c-1.2,1-1.3,2.8-0.3,3.9c0.6,0.6,1.3,1,2.1,1c0.7,0,1.3-0.2,1.9-0.7l127.7-112.2l0,0
		c0.1-0.1,0.2-0.2,0.3-0.4c0,0,0-0.1,0.1-0.1c0.1-0.1,0.1-0.2,0.2-0.3c0-0.1,0.1-0.1,0.1-0.2c0,0,0-0.1,0.1-0.1c0-0.1,0-0.1,0.1-0.2
		c0-0.1,0-0.1,0-0.2C295.2,119.2,295.2,119,295.2,119z"/>
	<path class="st0" d="M164.7,235.1c-1.1,0-2.1-0.5-3-1.4c0,0-0.1-0.1-0.1-0.1c-0.7-0.9-1.1-1.9-1-3c0.1-1.1,0.6-2.1,1.5-2.9
		l119.4-104.9H7.1c-2.2,0-4.1-1.9-4.1-4.1c0-2.3,1.9-4.1,4.1-4.1h274.3L162.1,9.7c-1.7-1.4-1.9-4.1-0.4-5.9c1.5-1.8,4.1-2,5.9-0.5
		l127.6,112.2l0.4,0.4c0.1,0.1,0.2,0.2,0.3,0.3c0.2,0.2,0.4,0.5,0.5,0.8c0.1,0.1,0.1,0.2,0.2,0.3c0.2,0.4,0.2,0.7,0.2,0.8v0.8
		c0,0.1,0,0.4-0.1,0.7c0,0.2-0.1,0.4-0.2,0.6c0,0.1-0.1,0.2-0.2,0.3c0,0,0,0.1-0.1,0.1c0,0.1-0.1,0.1-0.1,0.2
		c-0.1,0.1-0.1,0.3-0.3,0.4c-0.2,0.3-0.3,0.4-0.4,0.5L167.5,234C166.6,234.7,165.7,235.1,164.7,235.1z M163.6,231.7
		c0.4,0.4,0.7,0.5,1,0.5c0.4,0,0.7-0.1,1-0.4l127.6-112.1c0.1-0.2,0.2-0.3,0.3-0.5c0,0,0-0.1,0.1-0.1c0-0.1,0.1-0.1,0.1-0.2
		c0-0.1,0-0.1,0.1-0.2v-0.4c0,0,0,0,0,0c0-0.1-0.1-0.1-0.1-0.2c-0.1-0.1-0.1-0.2-0.2-0.3c0,0,0,0,0,0l-0.3-0.3L165.7,5.5
		c-0.6-0.5-1.5-0.4-1.9,0.1c-0.2,0.3-0.4,0.7-0.3,1.1c0,0.4,0.2,0.7,0.5,0.9L286,114.9c0.4,0.4,0.6,1,0.4,1.5
		c-0.2,0.5-0.7,0.9-1.3,0.9H7.1c-0.8,0-1.4,0.7-1.4,1.4c0,0.7,0.6,1.4,1.4,1.4h278c0.6,0,1.1,0.4,1.3,0.9c0.2,0.5,0.1,1.2-0.4,1.5
		L163.8,229.8C163.2,230.3,163.2,231.1,163.6,231.7z M294.6,121.7C294.6,121.7,294.6,121.7,294.6,121.7
		C294.6,121.7,294.6,121.7,294.6,121.7z M295,121.1C295,121.1,295,121.1,295,121.1C295,121.1,295,121.1,295,121.1z M295.9,120.4
		C295.9,120.4,295.9,120.4,295.9,120.4C295.9,120.4,295.9,120.4,295.9,120.4z M295.9,120.4C295.9,120.4,295.9,120.4,295.9,120.4
		C295.9,120.4,295.9,120.4,295.9,120.4z M293.7,117.9C293.7,117.9,293.7,117.9,293.7,117.9c0-0.1,0-0.2,0-0.3
		C293.6,117.8,293.6,117.9,293.7,117.9z"/>
</g>
</svg>
